<svg width="1014" height="807" viewBox="0 0 1014 807" fill="none" xmlns="http://www.w3.org/2000/svg">
<path d="M-10 0C327.92 0 665.84 0 1014 0C1014 266.31 1014 532.62 1014 807C676.08 807 338.16 807 -10 807C-10 540.69 -10 274.38 -10 0Z" fill="#FCFCFC"/>
<path d="M527.867 158.822C529.051 158.812 529.051 158.812 530.259 158.802C532.869 158.783 535.479 158.771 538.09 158.761C538.986 158.757 539.882 158.753 540.804 158.749C545.553 158.728 550.301 158.713 555.049 158.704C559.924 158.693 564.799 158.659 569.674 158.619C573.446 158.593 577.219 158.584 580.991 158.581C582.786 158.576 584.582 158.564 586.377 158.546C600.332 158.41 613.182 159.045 624 168.999C624.592 169.524 625.183 170.048 625.793 170.589C629.055 173.65 631.68 176.861 634.188 180.562C637.51 185.464 641.223 189.872 645.102 194.331C649.169 199.011 653.134 203.766 657.063 208.562C659.374 211.375 661.687 214.187 664 216.999C664.757 217.919 664.757 217.919 665.529 218.858C668.634 222.619 671.794 226.323 675 229.999C676.141 231.357 676.141 231.357 677.305 232.741C686.456 242.878 698.972 246.888 711.438 251.624C722.55 255.855 731.516 260.033 737.054 271.107C738.28 274.854 738.295 278.403 738.291 282.303C738.301 283.538 738.301 283.538 738.311 284.798C738.33 287.515 738.334 290.231 738.336 292.948C738.342 294.845 738.349 296.742 738.356 298.639C738.368 302.616 738.372 306.593 738.371 310.57C738.37 315.646 738.398 320.722 738.432 325.798C738.455 329.718 738.459 333.638 738.457 337.557C738.46 339.428 738.469 341.298 738.484 343.168C738.648 364.919 738.648 364.919 731.313 372.937C719.15 380.51 704.775 379.134 691 378.999C690.745 377.64 690.745 377.64 690.484 376.253C689.047 369.029 687.484 362.502 684 355.999C683.591 355.201 683.183 354.403 682.762 353.581C675.064 339.596 662.78 331.08 648.125 325.499C631.72 321.016 614.057 322.884 599.035 330.503C585.207 338.552 575.562 350.856 570.063 365.749C568.666 370.898 568.666 370.898 568 379.999C483.355 379.504 483.355 379.504 397 378.999C394.69 372.069 392.38 365.139 390 357.999C381.037 342.635 369.788 330.822 352.672 324.835C333.376 319.848 315.8 324.329 299 333.999C298.209 334.437 297.417 334.876 296.602 335.327C282.318 344.539 276.117 362.513 272 377.999C266.574 378.074 261.148 378.128 255.722 378.164C253.878 378.179 252.034 378.199 250.191 378.225C247.532 378.262 244.874 378.279 242.215 378.292C241.398 378.308 240.581 378.323 239.739 378.339C234.402 378.341 230.74 377.497 226 374.999C221.819 370.679 221.872 366.177 221.839 360.382C221.834 359.726 221.829 359.071 221.824 358.395C221.809 356.233 221.802 354.071 221.797 351.909C221.791 350.402 221.785 348.896 221.78 347.389C221.769 344.232 221.763 341.076 221.76 337.919C221.754 333.88 221.73 329.84 221.702 325.801C221.683 322.689 221.678 319.578 221.676 316.466C221.673 314.977 221.665 313.488 221.652 311.999C221.635 309.914 221.637 307.83 221.644 305.745C221.64 304.561 221.636 303.376 221.633 302.155C222.13 297.887 223.684 295.269 226.75 292.312C233.189 288.556 239.846 288.707 247.092 288.721C248.201 288.715 249.309 288.709 250.451 288.703C254.161 288.686 257.87 288.683 261.58 288.68C264.241 288.671 266.902 288.661 269.563 288.65C275.29 288.628 281.016 288.613 286.743 288.603C295.023 288.588 303.302 288.562 311.582 288.534C325.016 288.489 338.45 288.452 351.885 288.421C364.932 288.391 377.98 288.356 391.028 288.317C392.235 288.313 392.235 288.313 393.466 288.309C397.503 288.297 401.54 288.284 405.577 288.272C439.051 288.168 472.526 288.079 506 287.999C506.002 287.106 506.002 287.106 506.005 286.194C506.042 271.679 506.101 257.164 506.184 242.649C506.224 235.629 506.256 228.61 506.271 221.59C506.285 214.815 506.321 208.039 506.368 201.263C506.383 198.68 506.391 196.096 506.392 193.513C506.394 189.891 506.421 186.27 506.454 182.648C506.449 181.582 506.444 180.517 506.439 179.419C506.526 173.163 507.279 168.173 511 162.999C516.255 158.926 521.421 158.846 527.867 158.822Z" fill="#1C1C1C"/>
<path d="M318.52 125.371C320.217 125.368 320.217 125.368 321.95 125.364C324.344 125.365 326.739 125.378 329.134 125.403C332.789 125.438 336.441 125.424 340.096 125.405C342.424 125.412 344.753 125.421 347.082 125.434C348.171 125.429 349.26 125.424 350.381 125.419C358.555 125.545 363.512 127.269 369.508 133.032C370.095 133.589 370.683 134.146 371.288 134.72C371.894 135.307 372.5 135.895 373.125 136.5C374.446 137.759 375.768 139.016 377.09 140.274C378.074 141.215 378.074 141.215 379.078 142.175C381.386 144.366 383.73 146.515 386.081 148.66C391.913 153.98 397.532 159.469 403.051 165.114C405.173 167.242 407.385 169.215 409.668 171.168C415.568 176.275 420.962 181.905 426.437 187.457C433.036 194.171 433.036 194.171 440 200.5C445.809 205.469 451.074 211.018 456.437 216.457C461.524 221.611 466.636 226.662 472.142 231.373C475.359 234.19 478.362 237.218 481.375 240.25C481.99 240.861 482.605 241.472 483.238 242.102C483.827 242.692 484.416 243.283 485.023 243.891C485.549 244.417 486.074 244.943 486.615 245.486C490.727 249.982 490.366 253.609 490.375 259.375C490.399 260.226 490.424 261.077 490.449 261.953C490.468 265.926 490.307 268.425 488.414 271.977C482.747 276.727 475.543 276.332 468.5 276.371C467.505 276.38 466.511 276.389 465.486 276.399C463.392 276.413 461.298 276.422 459.203 276.426C456.01 276.438 452.818 276.487 449.625 276.537C447.583 276.547 445.542 276.554 443.5 276.559C442.552 276.578 441.604 276.598 440.627 276.618C434.103 276.574 430.918 275.323 426 271C423.84 268.555 423.84 268.555 421.937 265.875C421.183 264.831 420.429 263.787 419.652 262.711C419.237 262.128 418.822 261.545 418.394 260.945C415.637 257.1 412.81 253.306 410 249.5C408.782 247.845 407.565 246.19 406.348 244.535C403.733 240.986 401.094 237.456 398.437 233.938C393.081 226.819 387.893 219.578 382.689 212.347C379.424 207.812 376.15 203.283 372.876 198.754C370.16 194.996 367.45 191.235 364.75 187.465C359.204 179.732 353.589 172.063 347.812 164.5C346.983 163.414 346.983 163.414 346.137 162.305C343.227 158.515 343.227 158.515 340 155C339.252 167.728 338.552 180.458 338.113 193.2C338.037 195.212 337.947 197.224 337.844 199.235C337.695 202.192 337.593 205.147 337.5 208.106C337.445 208.997 337.39 209.889 337.334 210.808C337.257 214.538 337.291 217.006 339.499 220.103C342.05 222.701 344.703 224.793 347.687 226.875C352.102 230.932 353.743 235.502 354.352 241.418C354.598 251.853 353.098 258.538 345.973 266.239C339.377 272.129 331.952 273.369 323.359 273.274C316.093 272.682 310.472 269.523 305.574 264.168C300.55 257.249 298.05 249.5 298.453 240.957C299.745 233.974 303.239 228.136 308.75 223.688C309.322 223.3 309.895 222.912 310.484 222.512C314.721 218.286 314.333 211.77 314.414 206.184C314.443 204.915 314.443 204.915 314.473 203.62C314.533 200.893 314.579 198.165 314.625 195.438C314.663 193.575 314.701 191.711 314.74 189.848C314.986 177.566 315.137 165.285 315 153C313.422 153.155 313.422 153.155 311.812 153.313C308 153 308 153 305.098 151.032C302.33 147.032 302.286 144.247 302.437 139.5C302.421 138.381 302.421 138.381 302.404 137.239C302.452 133.682 302.734 131.55 304.315 128.288C308.605 124.633 313.061 125.305 318.52 125.371Z" fill="#1C1B1C"/>
<path d="M516.062 459.687C517.145 459.658 518.227 459.629 519.342 459.599C532.299 459.498 541.478 463.735 550.715 472.656C560.974 483.725 563.574 498.331 563.437 512.937C563.43 514.079 563.422 515.22 563.415 516.397C563.254 524.611 562.513 531.481 559 539C558.587 539.955 558.175 540.91 557.75 541.894C552.608 552.573 543.954 559.695 533 564C527.765 565.572 522.357 565.265 516.937 565.312C515.314 565.356 515.314 565.356 513.658 565.4C500.61 565.502 490.545 560.942 480.996 552.156C476.199 547.1 473.407 541.497 471 535C470.679 534.143 470.358 533.285 470.027 532.402C465.175 516.718 466.674 498.57 473.473 483.801C479.474 472.494 487.981 465.3 500 461C505.242 459.437 510.638 459.735 516.062 459.687Z" fill="#1C1B1C"/>
<path d="M657.465 343.313C668.705 350.796 676.34 363.827 679 377.001C680.081 387.56 677.641 396.254 674 406.001C673.701 406.807 673.402 407.612 673.094 408.442C668.635 418.66 659.617 425.894 650 431.001C648.989 431.546 647.979 432.091 646.937 432.653C636.447 436.988 620.116 435.668 609.612 431.948C597.929 427.053 589.594 419.416 584 408.001C583.587 407.252 583.175 406.503 582.75 405.731C577.559 394.575 577.963 378.197 582 366.688C587.912 354.087 598.448 343.399 611.262 337.974C627.833 332.087 642.441 334.667 657.465 343.313Z" fill="#1C1C1C"/>
<path d="M332.188 334.5C333.022 334.502 333.856 334.504 334.716 334.506C342 334.691 347.531 336.721 354 340C355.008 340.325 356.016 340.65 357.055 340.984C366.493 344.239 372.934 352.782 378 361C385.275 376.468 385.366 390.003 380 406C378.379 409.415 376.473 412.151 374 415C373.352 415.757 372.703 416.513 372.035 417.293C362.932 427.121 351.162 433.573 337.703 434.539C325.693 434.904 317.006 433.959 307 427C305.822 426.19 305.822 426.19 304.621 425.363C298.981 420.943 295.548 415.135 292 409C291.513 408.2 291.025 407.399 290.523 406.574C284.375 396.166 283.236 384.355 285.723 372.578C290.712 356.662 301.417 345.682 316 338C321.582 335.16 326.046 334.454 332.188 334.5Z" fill="#1C1C1C"/>
<path d="M284 461C343.029 461 343.029 461 351.5 469.188C353.043 470.75 354.547 472.353 356 474C356.57 474.621 357.14 475.243 357.727 475.883C363.142 483.356 361.893 494.258 361 503C359.618 510.537 355.86 514.704 350.121 519.602C348 521 348 521 345 521C345.286 521.597 345.572 522.194 345.867 522.81C352.276 536.192 358.657 549.586 365 563C355.76 563 346.52 563 337 563C334.716 558.5 332.435 553.999 330.164 549.493C329.39 547.96 328.614 546.429 327.836 544.898C326.718 542.699 325.608 540.497 324.5 538.293C324.15 537.608 323.8 536.924 323.439 536.219C321.973 533.287 321 531.325 321 528C317.04 528 313.08 528 309 528C309 539.55 309 551.1 309 563C300.75 563 292.5 563 284 563C284 529.34 284 495.68 284 461Z" fill="#1C1C1C"/>
<path d="M379 461C436.711 461 436.711 461 447.035 469.719C453.556 476.475 456.191 484.331 456.375 493.625C456.052 502.714 454.997 510.037 448.289 516.699C443.537 521 443.537 521 440 521C440.251 521.497 440.501 521.993 440.759 522.505C443.359 527.661 445.954 532.82 448.545 537.98C449.514 539.907 450.484 541.834 451.455 543.759C452.849 546.523 454.237 549.288 455.625 552.055C456.062 552.919 456.5 553.784 456.951 554.675C457.351 555.475 457.752 556.276 458.164 557.101C458.697 558.16 458.697 558.16 459.241 559.241C460 561 460 561 460 563C451.09 563 442.18 563 433 563C422.956 544.013 422.956 544.013 418.875 535.938C418.316 534.833 417.756 533.728 417.18 532.59C416 530 416 530 416 528C412.04 528 408.08 528 404 528C404 539.55 404 551.1 404 563C395.75 563 387.5 563 379 563C379 529.34 379 495.68 379 461Z" fill="#1B1B1B"/>
<path d="M666 461C724.985 461 724.985 461 734.457 469.301C742.339 477.981 743.575 487.53 743.316 498.82C742.884 506.877 739.733 513.401 734 519C731.719 520.439 729.364 521.697 727 523C727.576 524.141 728.151 525.281 728.744 526.457C730.873 530.678 732.996 534.901 735.118 539.125C736.038 540.956 736.959 542.785 737.882 544.614C739.207 547.238 740.526 549.865 741.844 552.492C742.467 553.724 742.467 553.724 743.103 554.98C743.484 555.74 743.864 556.501 744.256 557.285C744.593 557.955 744.931 558.626 745.279 559.317C746 561 746 561 746 563C737.42 563 728.84 563 720 563C710.082 545.23 710.082 545.23 705.375 536.5C704.862 535.558 704.862 535.558 704.338 534.597C702 530.233 702 530.233 702 528C698.37 528 694.74 528 691 528C691 539.55 691 551.1 691 563C682.75 563 674.5 563 666 563C666 529.34 666 495.68 666 461Z" fill="#1B1A1B"/>
<path d="M541 189C549.745 188.959 558.49 188.917 567.5 188.875C570.246 188.857 572.993 188.839 575.822 188.82C578.017 188.814 580.212 188.809 582.406 188.805C583.531 188.794 584.656 188.784 585.815 188.774C599.984 188.77 599.984 188.77 604.812 192.34C605.4 193.131 605.4 193.131 606 193.937C606.48 194.56 606.959 195.183 607.453 195.824C607.964 196.542 608.474 197.26 609 198C613.803 204.734 618.716 210.982 624.352 217.043C628.759 221.964 632.762 227.196 636.79 232.43C638.389 234.504 640.008 236.564 641.625 238.625C642.418 239.657 642.418 239.657 643.227 240.711C644.616 242.504 646.033 244.276 647.461 246.039C648.308 247.109 649.154 248.179 650 249.25C651.176 250.712 651.176 250.712 652.375 252.203C654 255 654 255 653 260C616.04 260 579.08 260 541 260C541 236.57 541 213.14 541 189Z" fill="#FCFCFC"/>
<path d="M340 597C394.444 597 394.444 597 404 605C409.977 611.711 412.388 617.741 412.312 626.812C412.307 627.519 412.301 628.225 412.295 628.953C412.099 637.432 410.242 643.133 404.793 649.59C402.403 651.47 399.88 652.091 397 653C397.576 654.141 398.151 655.281 398.744 656.457C400.873 660.678 402.996 664.901 405.118 669.125C406.038 670.956 406.959 672.785 407.882 674.614C409.207 677.238 410.526 679.865 411.844 682.492C412.467 683.724 412.467 683.724 413.103 684.98C413.484 685.74 413.864 686.501 414.256 687.285C414.593 687.955 414.931 688.626 415.279 689.317C416 691 416 691 416 693C407.75 693 399.5 693 391 693C380.956 674.013 380.956 674.013 376.875 665.938C376.316 664.833 375.756 663.728 375.18 662.59C374 660 374 660 374 658C370.37 658 366.74 658 363 658C363 669.55 363 681.1 363 693C355.41 693 347.82 693 340 693C340 661.32 340 629.64 340 597Z" fill="#1C1C1C"/>
<path d="M430 597C484.016 597 484.016 597 493.504 604.395C500.086 611.458 502.534 621.938 502.316 631.348C501.407 638.974 498.486 645.648 493 651C490.188 652.875 490.188 652.875 488 654C489.404 658.593 491.28 662.787 493.477 667.043C494.154 668.377 494.831 669.711 495.508 671.045C496.57 673.126 497.635 675.207 498.701 677.286C499.736 679.307 500.763 681.331 501.789 683.355C502.111 683.977 502.433 684.599 502.764 685.24C504.183 688.045 505 689.808 505 693C496.75 693 488.5 693 480 693C478.039 688.981 476.081 684.962 474.128 680.939C473.464 679.573 472.799 678.208 472.132 676.843C471.171 674.873 470.214 672.902 469.258 670.93C468.682 669.746 468.106 668.563 467.512 667.343C466.121 664.266 465 661.223 464 658C460.04 658 456.08 658 452 658C452 669.55 452 681.1 452 693C444.74 693 437.48 693 430 693C430 661.32 430 629.64 430 597Z" fill="#1C1C1C"/>
<path d="M211 461C219.91 461 228.82 461 238 461C238.799 463.349 239.598 465.697 240.422 468.117C241.53 471.37 242.64 474.623 243.75 477.875C244.042 478.73 244.334 479.585 244.634 480.466C248.746 492.503 252.927 504.514 257.188 516.5C262.672 531.933 267.866 547.446 273 563C263.43 563 253.86 563 244 563C243.01 559.38 243.01 559.38 242 555.688C241.687 554.554 241.687 554.554 241.367 553.397C240.587 550.508 240 548.006 240 545C228.78 545 217.56 545 206 545C205.67 547.64 205.34 550.28 205 553C204.01 556.3 203.02 559.6 202 563C193.42 563 184.84 563 176 563C177.125 556.25 177.125 556.25 178.221 553.149C178.59 552.093 178.59 552.093 178.966 551.016C179.235 550.262 179.504 549.507 179.781 548.73C180.067 547.917 180.353 547.103 180.647 546.265C181.593 543.571 182.547 540.879 183.5 538.188C184.509 535.324 185.516 532.459 186.522 529.594C187.231 527.578 187.94 525.562 188.65 523.546C191.362 515.839 194.041 508.121 196.707 500.398C197.093 499.281 197.479 498.164 197.877 497.013C199.399 492.607 200.921 488.2 202.438 483.792C203.494 480.726 204.553 477.662 205.613 474.598C205.927 473.683 206.241 472.768 206.565 471.826C206.857 470.982 207.149 470.139 207.45 469.27C207.703 468.538 207.955 467.806 208.215 467.052C209.008 464.978 210.007 462.986 211 461Z" fill="#1B1B1B"/>
<path d="M88 461C96.25 461 104.5 461 113 461C113 474.2 113 487.4 113 501C113.66 501 114.32 501 115 501C115.278 500.413 115.555 499.826 115.841 499.221C116.935 497.124 118.119 495.346 119.539 493.46C120.033 492.803 120.527 492.145 121.036 491.467C121.56 490.776 122.085 490.086 122.625 489.375C123.165 488.66 123.705 487.945 124.261 487.208C127.774 482.571 131.306 477.952 135.036 473.487C137.038 471.043 137.038 471.043 138.642 468.382C141.316 464.356 143.272 461.452 148.083 460.192C151.605 460.016 154.984 460.123 158.5 460.375C159.704 460.42 160.908 460.465 162.148 460.511C165.104 460.629 168.049 460.792 171 461C169.702 463.752 168.267 466.132 166.418 468.546C165.904 469.219 165.39 469.892 164.861 470.585C164.309 471.299 163.757 472.013 163.188 472.75C162.617 473.492 162.046 474.235 161.457 475.001C156.34 481.626 151.084 488.135 145.777 494.609C145.304 495.194 144.831 495.778 144.343 496.38C143.132 497.841 141.852 499.245 140.566 500.64C138.729 502.865 138.729 502.865 139.251 505.396C140.004 508.015 140.898 509.769 142.414 512.019C142.921 512.782 143.427 513.546 143.949 514.332C144.502 515.151 145.055 515.969 145.625 516.812C146.808 518.595 147.989 520.378 149.168 522.164C149.791 523.106 150.414 524.049 151.056 525.02C155.073 531.177 158.925 537.439 162.797 543.688C166.067 548.952 169.4 554.143 172.936 559.233C174 561 174 561 174 563C164.145 564.762 153.645 566.321 144 563C136.559 556.567 132.564 547.285 128.605 538.45C126.416 533.744 123.786 529.372 121 525C117.709 526.89 116.109 527.925 114 531C112.953 536.452 113.019 541.839 113.062 547.375C113.049 548.889 113.033 550.403 113.014 551.918C112.967 555.614 112.985 559.301 113 563C104.75 563 96.5 563 88 563C88 529.34 88 495.68 88 461Z" fill="#1C1C1C"/>
<path d="M761 461C783.44 461 805.88 461 829 461C829 468.26 829 475.52 829 483C814.48 483 799.96 483 785 483C785 489.27 785 495.54 785 502C797.87 502 810.74 502 824 502C824 508.6 824 515.2 824 522C811.13 522 798.26 522 785 522C785 528.93 785 535.86 785 543C799.85 543 814.7 543 830 543C830 549.6 830 556.2 830 563C807.23 563 784.46 563 761 563C761 529.34 761 495.68 761 461Z" fill="#1D1D1D"/>
<path d="M888.313 459.5C889.421 459.505 890.53 459.51 891.672 459.515C899.816 459.689 906.029 460.526 913 465C914.123 465.669 914.123 465.669 915.27 466.351C922.614 471.229 927.107 478.804 930 487C930 488.32 930 489.64 930 491C927.128 491.843 924.253 492.674 921.375 493.5C920.567 493.738 919.759 493.977 918.926 494.222C914.496 495.483 910.657 496.301 906 496C905.758 495.469 905.515 494.938 905.266 494.39C903.321 490.292 901.602 486.905 898 484C892.01 482.003 883.828 481.629 878 484.375C872.59 489.108 869.34 496.112 868.839 503.315C868.793 506.085 868.765 508.854 868.75 511.625C868.729 512.572 868.709 513.52 868.688 514.496C868.638 523.554 870.198 531.792 876 539C879.992 542.508 883.497 543.314 888.816 543.207C894.548 542.663 898.577 540.86 902.375 536.5C904.033 534.388 905.508 532.238 907 530C914.496 531.524 921.714 533.68 929 536C927.824 545.217 922.804 552.32 915.647 558.117C907.112 564.188 898.352 565.845 888.063 565.625C886.351 565.601 886.351 565.601 884.605 565.576C872.066 565.196 863.29 562.379 854.152 553.375C841.564 539.484 840.377 522.568 840.864 504.65C841.601 490.303 847.655 478.787 858 469C867.288 461.393 876.48 459.43 888.313 459.5Z" fill="#1B1B1B"/>
<path d="M259 597C280.12 597 301.24 597 323 597C323 603.27 323 609.54 323 616C309.47 616 295.94 616 282 616C282 622.6 282 629.2 282 636C294.54 636 307.08 636 320 636C320 641.94 320 647.88 320 654C307.46 654 294.92 654 282 654C282 660.6 282 667.2 282 674C295.86 674 309.72 674 324 674C324 680.27 324 686.54 324 693C302.55 693 281.1 693 259 693C259 661.32 259 629.64 259 597Z" fill="#1A1A1A"/>
<path d="M229.738 601.696C238.118 607.829 242.372 615.061 245 625C242.085 625.84 239.168 626.672 236.25 627.5C235.425 627.739 234.6 627.977 233.75 628.223C232.951 628.449 232.152 628.674 231.328 628.907C230.228 629.221 230.228 629.221 229.106 629.541C227 630 227 630 223 630C222.671 629.096 222.671 629.096 222.336 628.172C220.172 622.719 218.426 619.771 213 617C207.711 615.238 202.029 614.986 197 617.5C196.34 617.995 195.68 618.49 195 619C194.34 619 193.68 619 193 619C192.571 619.867 192.571 619.867 192.133 620.75C191.432 622.143 190.703 623.522 189.93 624.875C184.543 635.729 185.555 651.2 188.949 662.575C191.235 667.852 194.601 671.851 200 674C206.2 674.8 211.547 674.208 217 671C220.071 668.085 222.183 664.807 224 661C230.751 662.78 237.406 664.705 244 667C243.846 674.077 240.619 678.777 236 684C227.012 691.922 217.932 694.568 206.125 694.438C205.154 694.43 204.183 694.421 203.183 694.413C190.71 694.118 181.987 690.226 173.285 681.227C161.681 667.231 162.02 649.135 163 632C164.317 621.285 170.053 610.904 178.375 604.063C193.073 593.586 214.194 592.072 229.738 601.696Z" fill="#1B1B1B"/>
<path d="M571 461C598.39 461 625.78 461 654 461C654 468.26 654 475.52 654 483C644.1 483 634.2 483 624 483C624 509.4 624 535.8 624 563C616.08 563 608.16 563 600 563C600 536.6 600 510.2 600 483C590.43 483 580.86 483 571 483C571 475.74 571 468.48 571 461Z" fill="#1E1E1F"/>
<path d="M520 597C527.59 597 535.18 597 543 597C543 628.68 543 660.36 543 693C535.41 693 527.82 693 520 693C520 661.32 520 629.64 520 597Z" fill="#1B1B1B"/>
<path d="M524.25 482.063C531.328 487.049 534.201 492.628 536 501C536.387 504.659 536.431 508.261 536.375 511.938C536.364 512.904 536.353 513.869 536.342 514.864C536.116 524.97 535.142 532.995 527.816 540.473C523.56 544.052 518.697 544.521 513.305 544.375C507.879 543.493 503.652 540.148 500.187 536C493.956 526.253 493.754 512.721 495.539 501.661C497.513 492.886 500.805 487.359 508 482C513.364 480.212 518.888 480.31 524.25 482.063Z" fill="#FAFAFA"/>
<path d="M340.207 367.734C345.671 370.207 348.787 373.271 351.25 378.812C352.456 383.937 352.644 388.106 350.938 393.124C347.892 397.643 344.219 401.26 339 402.999C333.733 403.504 329.368 403.671 324.563 401.312C320.356 397.516 316.558 393.452 315.629 387.703C315.453 381.203 316.561 376.858 321 371.999C326.762 366.851 332.798 365.269 340.207 367.734Z" fill="#F9F9FA"/>
<path d="M634 367.001C639.644 368.896 643.181 372.822 646.082 377.891C647.948 382.179 647.71 386.817 646.277 391.223C643.841 396.501 640.828 399.472 635.687 402.251C630.494 403.7 626.378 403.421 621.312 401.876C616.67 399.248 614.288 396.331 611.687 391.626C610.025 385.277 610.594 380.498 613.719 374.829C618.992 367.305 625.286 366.134 634 367.001Z" fill="#FAFAFA"/>
<path d="M508 183C508.33 183 508.66 183 509 183C509.116 196.473 509.205 209.947 509.259 223.421C509.285 229.677 509.321 235.933 509.377 242.189C509.431 248.226 509.461 254.262 509.474 260.299C509.484 262.603 509.502 264.907 509.529 267.211C509.565 270.436 509.57 273.66 509.568 276.885C509.586 277.84 509.604 278.794 509.622 279.778C509.615 280.66 509.608 281.542 509.601 282.45C509.606 283.213 509.61 283.975 509.615 284.761C508.605 288.437 507.087 289.776 504 292C500.442 292.729 496.948 292.662 493.327 292.615C491.696 292.623 491.696 292.623 490.031 292.632C486.38 292.645 482.729 292.622 479.078 292.599C476.463 292.601 473.848 292.605 471.233 292.611C464.864 292.622 458.496 292.606 452.127 292.581C444.712 292.553 437.297 292.552 429.881 292.552C416.653 292.551 403.424 292.526 390.195 292.487C377.355 292.45 364.515 292.428 351.675 292.426C350.488 292.425 350.488 292.425 349.278 292.425C348.488 292.425 347.699 292.425 346.885 292.424C345.295 292.424 343.705 292.424 342.116 292.423C341.332 292.423 340.548 292.423 339.74 292.423C327.508 292.419 315.276 292.401 303.043 292.381C298.608 292.374 294.173 292.369 289.738 292.366C282.046 292.36 274.355 292.345 266.664 292.318C264.106 292.31 261.549 292.306 258.991 292.306C255.509 292.304 252.028 292.291 248.546 292.274C247.016 292.278 247.016 292.278 245.455 292.281C244.524 292.274 243.592 292.267 242.632 292.26C241.829 292.258 241.025 292.256 240.197 292.254C237.756 291.972 236.117 291.218 234 290C236.374 288.813 237.814 288.87 240.463 288.861C241.88 288.853 241.88 288.853 243.325 288.845C244.892 288.843 244.892 288.843 246.491 288.842C247.595 288.837 248.699 288.832 249.837 288.827C253.562 288.811 257.287 288.803 261.012 288.795C263.673 288.785 266.333 288.775 268.993 288.765C274.734 288.743 280.474 288.725 286.214 288.709C294.514 288.686 302.814 288.658 311.113 288.629C324.578 288.581 338.043 288.538 351.507 288.497C364.589 288.458 377.671 288.417 390.753 288.372C391.962 288.368 391.962 288.368 393.196 288.364C397.239 288.35 401.282 288.337 405.325 288.323C438.883 288.209 472.442 288.102 506 288C506.01 286.699 506.021 285.399 506.031 284.058C506.129 271.83 506.231 259.601 506.339 247.372C506.395 241.084 506.448 234.797 506.497 228.509C506.545 222.447 506.597 216.384 506.653 210.322C506.673 208.003 506.692 205.685 506.709 203.366C506.733 200.131 506.763 196.896 506.795 193.66C506.8 192.692 506.806 191.723 506.812 190.724C506.822 189.848 506.832 188.972 506.842 188.068C506.851 186.919 506.851 186.919 506.861 185.747C507 184 507 184 508 183Z" fill="#232324"/>
<path d="M404 482C408.022 481.907 408.022 481.907 412.125 481.812C412.958 481.785 413.791 481.758 414.649 481.73C419.515 481.676 422.786 482.309 427 485C430.456 488.911 431.625 491.943 431.312 497.043C430.797 500.272 429.915 502.344 428 505C422.545 507.95 418.184 508.39 412.062 508.187C408.072 508.095 408.072 508.095 404 508C404 499.42 404 490.84 404 482Z" fill="#FBFBFB"/>
<path d="M691 481.999C708.834 481.405 708.834 481.405 715 485.999C717.886 489.673 718.193 492.536 717.938 497.062C717.339 501.379 716.353 504.03 713 506.999C710.182 507.928 707.626 508.118 704.672 508.097C703.951 508.095 703.23 508.092 702.487 508.09C701.584 508.08 700.681 508.071 699.75 508.062C696.862 508.041 693.975 508.021 691 507.999C691 499.419 691 490.839 691 481.999Z" fill="#FBFBFB"/>
<path d="M309 482.001C327.964 481.665 327.964 481.665 333.438 485.876C335.898 490.796 335.746 495.611 335 501.001C332.904 504.744 330.889 506.366 327 508.001C324.894 508.228 324.894 508.228 322.672 508.196C321.951 508.191 321.23 508.186 320.487 508.181C319.584 508.163 318.681 508.144 317.75 508.126C313.419 508.064 313.419 508.064 309 508.001C309 499.421 309 490.841 309 482.001Z" fill="#FBFBFB"/>
<path d="M452 616C455.011 615.918 458.023 615.835 461.125 615.75C462.062 615.714 463 615.678 463.965 615.64C469.459 615.568 472.731 616.197 477 620C479.735 624 479.665 628.322 479 633C476.919 637.087 475.242 639.314 471 641C468.802 641.227 468.802 641.227 466.453 641.196C465.692 641.191 464.93 641.186 464.146 641.181C462.712 641.153 462.712 641.153 461.25 641.125C456.671 641.064 456.671 641.064 452 641C452 632.75 452 624.5 452 616Z" fill="#F5F5F6"/>
<path d="M624 629.999C627.42 632.601 629.209 635.809 630 639.999C630.585 646.088 630 650.643 627 655.999C623.262 659.461 620.33 659.51 615.41 659.351C611.934 658.844 610.279 657.635 608 654.999C605.464 649.712 605.442 644.762 606 638.999C607.381 635.316 608.893 632.459 612 629.999C616.186 628.604 619.761 628.78 624 629.999Z" fill="#171717"/>
<path d="M363 616C365.867 615.938 368.734 615.876 371.688 615.813C373.029 615.772 373.029 615.772 374.397 615.73C379.094 615.681 382.206 615.914 386 619C388.858 623.14 389.589 626.88 389.422 631.813C388.677 635.673 386.889 637.374 384 640C381.26 640.93 378.77 641.12 375.891 641.098C375.21 641.095 374.53 641.093 373.829 641.09C372.978 641.081 372.127 641.072 371.25 641.063C368.527 641.042 365.805 641.021 363 641C363 632.75 363 624.5 363 616Z" fill="#FAFAFA"/>
<path d="M797 630.001C800.017 632.245 801.577 634.558 803 638.001C803.687 644.41 803.884 650.591 800 656.001C798.111 658.18 796.783 658.866 793.953 659.352C789.73 659.622 786.865 659.379 783.5 656.688C779.001 651.852 779.669 646.722 779.715 640.403C780.092 635.907 780.841 634.16 784 631.001C788.347 628.316 792.175 628.766 797 630.001Z" fill="#191919"/>
<path d="M809 630C811.31 630 813.62 630 816 630C817.006 632.769 818.005 635.54 819 638.312C819.286 639.098 819.572 639.884 819.867 640.693C820.138 641.451 820.409 642.208 820.688 642.988C821.065 644.033 821.065 644.033 821.449 645.099C822 647 822 647 822 650C822.66 650 823.32 650 824 650C824.248 648.742 824.495 647.484 824.75 646.188C825.978 640.598 827.947 635.332 830 630C832.31 630 834.62 630 837 630C837 639.57 837 649.14 837 659C835.02 659 833.04 659 831 659C830.67 655.37 830.34 651.74 830 648C828.68 651.63 827.36 655.26 826 659C824.02 659 822.04 659 820 659C818.68 655.7 817.36 652.4 816 649C815.67 652.3 815.34 655.6 815 659C813.02 659 811.04 659 809 659C809 649.43 809 639.86 809 630Z" fill="#1B1B1B"/>
<path d="M633 630C635.31 630 637.62 630 640 630C640.505 632.249 641.004 634.499 641.5 636.75C641.778 638.003 642.057 639.256 642.344 640.547C643 644 643 644 643 648C643.66 648 644.32 648 645 648C645.103 646.886 645.206 645.773 645.312 644.625C645.929 639.564 647.425 634.834 649 630C650.98 630 652.96 630 655 630C657.475 638.415 657.475 638.415 660 647C661.32 641.39 662.64 635.78 664 630C665.98 630 667.96 630 670 630C663.694 657.306 663.694 657.306 662 659C660.35 659 658.7 659 657 659C654.525 650.585 654.525 650.585 652 642C649.563 648.475 649.563 648.475 647.312 655C647.061 655.763 646.81 656.526 646.551 657.312C646.369 657.869 646.187 658.426 646 659C644.35 659 642.7 659 641 659C638.492 652.764 636.807 646.547 635.312 640C635.088 639.034 634.863 638.069 634.631 637.074C634.082 634.717 633.539 632.359 633 630Z" fill="#141314"/>
<path d="M571 461C598.39 461 625.78 461 654 461C654 468.26 654 475.52 654 483C644.1 483 634.2 483 624 483C624 509.4 624 535.8 624 563C616.08 563 608.16 563 600 563C600.33 536.6 600.66 510.2 601 483C601.33 483 601.66 483 602 483C602 509.07 602 535.14 602 562C608.93 562 615.86 562 623 562C622.995 559.582 622.99 557.164 622.984 554.672C622.968 546.701 622.957 538.731 622.948 530.76C622.943 525.925 622.936 521.09 622.925 516.255C622.914 511.593 622.908 506.931 622.905 502.269C622.903 500.487 622.9 498.704 622.894 496.921C622.887 494.433 622.886 491.945 622.886 489.457C622.883 488.713 622.879 487.968 622.876 487.201C622.886 482.114 622.886 482.114 624 481C626.073 480.912 628.148 480.893 630.223 480.902C631.483 480.906 632.743 480.909 634.041 480.912C635.382 480.92 636.722 480.929 638.062 480.938C639.407 480.943 640.751 480.947 642.096 480.951C645.397 480.963 648.699 480.981 652 481C652 475.06 652 469.12 652 463C625.93 463 599.86 463 573 463C573 468.94 573 474.88 573 481C581.91 481 590.82 481 600 481C600 481.33 600 481.66 600 482C590.43 482 580.86 482 571 482C571 475.07 571 468.14 571 461Z" fill="#080809"/>
<path d="M895 630C897.31 630 899.62 630 902 630C905 636 908 642 911 648C911.33 642.06 911.66 636.12 912 630C913.65 630 915.3 630 917 630C917 639.57 917 649.14 917 659C914.69 659 912.38 659 910 659C907.36 653.72 904.72 648.44 902 643C901.67 648.28 901.34 653.56 901 659C899.02 659 897.04 659 895 659C895 649.43 895 639.86 895 630Z" fill="#161616"/>
<path d="M687 630C689.64 630 692.28 630 695 630C697.31 635.61 699.62 641.22 702 647C702.33 641.39 702.66 635.78 703 630C704.65 630 706.3 630 708 630C708 639.57 708 649.14 708 659C705.69 659 703.38 659 701 659C698.69 653.72 696.38 648.44 694 643C693.67 648.28 693.34 653.56 693 659C691.02 659 689.04 659 687 659C687 649.43 687 639.86 687 630Z" fill="#252425"/>
<path d="M340 597C353.86 597 367.72 597 382 597C381.67 597.66 381.34 598.32 381 599C368.46 599 355.92 599 343 599C343 629.03 343 659.06 343 690C348.61 690 354.22 690 360 690C360 680.1 360 670.2 360 660C360.33 660 360.66 660 361 660C361.025 664.397 361.043 668.793 361.055 673.19C361.06 674.686 361.067 676.183 361.075 677.68C361.088 679.827 361.093 681.974 361.098 684.121C361.106 686.061 361.106 686.061 361.114 688.041C361 691 361 691 360 692C353.4 692.33 346.8 692.66 340 693C340 661.32 340 629.64 340 597Z" fill="#292929"/>
<path d="M259 597C263.95 597 268.9 597 274 597C274 597.33 274 597.66 274 598C269.71 598 265.42 598 261 598C261.33 628.36 261.66 658.72 262 690C281.47 690 300.94 690 321 690C321 685.38 321 680.76 321 676C308.13 676 295.26 676 282 676C282 675.67 282 675.34 282 675C295.2 675 308.4 675 322 675C322 680.28 322 685.56 322 691C322.33 691.33 322.66 691.66 323 692C323 686.39 323 680.78 323 675C323.33 675 323.66 675 324 675C324 680.94 324 686.88 324 693C302.55 693 281.1 693 259 693C259 661.32 259 629.64 259 597Z" fill="#242324"/>
<path d="M761 461C783.44 461 805.88 461 829 461C829 467.93 829 474.86 829 482C814.48 482 799.96 482 785 482C785 481.67 785 481.34 785 481C798.86 481 812.72 481 827 481C827 475.06 827 469.12 827 463C805.55 463 784.1 463 762 463C762 495.67 762 528.34 762 562C783.78 562 805.56 562 828 562C828 556.39 828 550.78 828 545C828.33 545 828.66 545 829 545C829 550.94 829 556.88 829 563C806.56 563 784.12 563 761 563C761 529.34 761 495.68 761 461Z" fill="black"/>
<path d="M730.816 629.981C733.189 631.839 734.802 633.478 735.875 636.313C735.916 636.87 735.958 637.427 736 638C734.02 638 732.04 638 730 638C730 637.34 730 636.68 730 636C728.543 635.92 727.084 635.861 725.625 635.813C724.407 635.761 724.407 635.761 723.164 635.708C722.45 635.804 721.736 635.901 721 636C718.297 640.056 718.475 643.245 719 648C719.902 651.094 719.902 651.094 722 653C725 653.75 725 653.75 728 653C729.913 651.12 729.913 651.12 731 649C729.02 649 727.04 649 725 649C725 647.35 725 645.7 725 644C728.96 644 732.92 644 737 644C736.42 653.714 736.42 653.714 732 658C728.295 659.853 724.044 659.459 720 659C715.84 656.661 714.449 654.449 713 650C711.722 638.129 711.722 638.129 714.75 633.313C719.085 628.858 724.966 626.823 730.816 629.981Z" fill="#161616"/>
<path d="M875 630C876.98 630 878.96 630 881 630C890 652.537 890 652.537 890 659C888.02 659 886.04 659 884 659C883.67 657.02 883.34 655.04 883 653C879.7 653 876.4 653 873 653C872.67 654.98 872.34 656.96 872 659C870.02 659 868.04 659 866 659C868.191 649.026 871.496 639.57 875 630Z" fill="#171718"/>
<path d="M844 630C858 630 858 630 861.375 632C863.637 636.175 863.674 638.28 863 643C860.793 645.969 859.514 646.829 856 648C853.667 648.04 851.333 648.044 849 648C849 651.63 849 655.26 849 659C847.35 659 845.7 659 844 659C844 649.43 844 639.86 844 630Z" fill="#141414"/>
<path d="M223 491C225 492 225 492 226.053 494.927C226.432 496.219 226.801 497.513 227.164 498.809C227.361 499.491 227.558 500.172 227.761 500.875C228.176 502.319 228.588 503.764 228.996 505.21C229.622 507.427 230.259 509.64 230.898 511.854C231.3 513.255 231.701 514.657 232.102 516.059C232.292 516.723 232.483 517.388 232.679 518.073C234 522.766 234 522.766 234 525C227.4 525 220.8 525 214 525C214.699 520.104 215.446 516.059 216.848 511.41C217.205 510.215 217.563 509.019 217.932 507.787C218.305 506.558 218.678 505.329 219.062 504.062C219.628 502.178 219.628 502.178 220.205 500.256C221.132 497.169 222.064 494.084 223 491Z" fill="#F3F3F3"/>
<path d="M430 597C443.86 597 457.72 597 472 597C471.67 597.66 471.34 598.32 471 599C458.13 599 445.26 599 432 599C432 629.36 432 659.72 432 691C438.27 691 444.54 691 451 691C451 680.11 451 669.22 451 658C451.33 658 451.66 658 452 658C452 669.55 452 681.1 452 693C444.74 693 437.48 693 430 693C430 661.32 430 629.64 430 597Z" fill="#090A0A"/>
<path d="M770 630C773.24 632.565 774.696 634.087 776 638C774.02 638.33 772.04 638.66 770 639C769.34 638.01 768.68 637.02 768 636C764.5 635.5 764.5 635.5 761 636C758.834 639.249 758.75 640.186 758.813 643.937C758.819 644.792 758.825 645.647 758.832 646.527C758.987 648.812 759.364 650.806 760 653C764.295 653.379 764.295 653.379 768 651.5C770.712 649.466 772.699 649.775 776 650C774.647 654.428 773.041 656.679 769 659C764.749 659.694 761.163 659.43 757.125 657.937C753.525 654.655 752.26 651.246 751.715 646.531C751.534 641.314 751.88 637.368 755 633C759.757 628.583 763.971 628.057 770 630Z" fill="#141414"/>
<path d="M923 630C924.98 630 926.96 630 929 630C930.32 632.97 931.64 635.94 933 639C935.647 636.353 936.599 633.438 938 630C939.98 630 941.96 630 944 630C942.558 634.621 941.027 639.032 938.875 643.375C936.526 648.441 936.207 653.475 936 659C934.02 659 932.04 659 930 659C929.997 658.224 929.995 657.448 929.992 656.648C929.693 648.296 927.792 642.235 924.277 634.801C923 632 923 632 923 630Z" fill="#282929"/>
<path d="M583 630C589.6 630 596.2 630 603 630C603 631.65 603 633.3 603 635C600.69 635 598.38 635 596 635C596 642.92 596 650.84 596 659C594.02 659 592.04 659 590 659C590 651.08 590 643.16 590 635C587.69 635 585.38 635 583 635C583 633.35 583 631.7 583 630Z" fill="#0D0C0D"/>
<path d="M895 630C897.31 630 899.62 630 902 630C902.894 631.405 903.765 632.824 904.625 634.25C905.112 635.039 905.6 635.828 906.102 636.641C907 639 907 639 906.148 641.297C905.769 641.859 905.39 642.421 905 643C904.01 642.34 903.02 641.68 902 641C901.67 646.94 901.34 652.88 901 659C899.02 659 897.04 659 895 659C895 649.43 895 639.86 895 630Z" fill="#323233"/>
<path d="M703 630C704.65 630 706.3 630 708 630C708 639.57 708 649.14 708 659C705.69 659 703.38 659 701 659C699.798 656.422 698.613 653.839 697.437 651.25C697.095 650.52 696.753 649.791 696.4 649.039C696.081 648.33 695.762 647.621 695.434 646.891C695.135 646.241 694.837 645.592 694.529 644.923C693.891 642.605 694.245 641.251 695 639C695.289 639.804 695.577 640.609 695.875 641.438C696.733 644.133 696.733 644.133 699 645C698.67 643.35 698.34 641.7 698 640C699.892 642.386 701.024 644.072 702 647C702.33 641.39 702.66 635.78 703 630Z" fill="#151515"/>
<path d="M791.5 634.375C795 635 795 635 796.938 637C798.285 640.804 798.621 644.008 798 648C796.844 650.363 795.85 652.15 794 654C791.137 654.301 789.595 654.446 787.25 652.688C784.437 648.89 784.533 644.528 785 640C786.479 635.823 787.084 635.164 791.5 634.375Z" fill="#F6F6F7"/>
<path d="M223 298C225 300 225 300 225.24 302.822C225.236 304.026 225.232 305.229 225.227 306.469C225.227 307.133 225.228 307.796 225.228 308.48C225.227 310.677 225.211 312.873 225.195 315.07C225.192 316.592 225.189 318.114 225.187 319.635C225.179 323.644 225.159 327.652 225.137 331.66C225.117 335.748 225.108 339.837 225.098 343.926C225.076 351.951 225.042 359.975 225 368C224.01 368.495 224.01 368.495 223 369C221.575 366.15 221.873 363.733 221.871 360.547C221.869 359.885 221.867 359.223 221.865 358.541C221.861 356.349 221.864 354.157 221.867 351.965C221.866 350.446 221.866 348.926 221.864 347.407C221.863 344.222 221.865 341.037 221.87 337.851C221.875 333.76 221.872 329.668 221.866 325.577C221.862 322.44 221.864 319.303 221.866 316.165C221.867 314.656 221.866 313.147 221.864 311.638C221.861 309.533 221.865 307.429 221.871 305.324C221.871 304.124 221.872 302.924 221.873 301.688C222 299 222 299 223 298Z" fill="#2D2D2D"/>
<path d="M621 635.001C622.664 636.153 622.664 636.153 624 638.001C624.398 640.778 624.398 640.778 624.375 643.938C624.383 644.979 624.39 646.019 624.398 647.091C623.956 650.325 623.302 651.715 621 654.001C618 654.501 618 654.501 615 654.001C612.698 651.715 612.044 650.325 611.602 647.091C611.609 646.05 611.617 645.01 611.625 643.938C611.617 642.895 611.61 641.853 611.602 640.778C612 638.001 612 638.001 613.336 636.153C615.932 634.355 617.936 634.618 621 635.001Z" fill="#F8F8F8"/>
<path d="M674 630C675.98 630 677.96 630 680 630C680 639.57 680 649.14 680 659C678.02 659 676.04 659 674 659C674 649.43 674 639.86 674 630Z" fill="#0D0D0D"/>
<path d="M762 461C784.11 461 806.22 461 829 461C829 467.93 829 474.86 829 482C814.48 482 799.96 482 785 482C785 481.67 785 481.34 785 481C798.86 481 812.72 481 827 481C827 475.06 827 469.12 827 463C825.132 463.009 825.132 463.009 823.226 463.018C809.706 463.06 796.203 462.836 782.688 462.5C780.663 462.452 778.639 462.403 776.615 462.355C771.743 462.24 766.872 462.121 762 462C762 461.67 762 461.34 762 461Z" fill="#0B0B0B"/>
<path d="M798 632C802.902 636.744 802.902 636.744 803.203 640.609C803.308 647.606 803.12 652.399 798.375 657.875C794.633 659.647 791.05 659.807 787 659C783.938 656.5 783.938 656.5 782 654C784.475 654.99 784.475 654.99 787 656C786.34 654.02 785.68 652.04 785 650C785.557 650.495 786.114 650.99 786.688 651.5C789.463 653.301 790.758 653.665 794 653C797.409 649.104 797.579 644.965 798 640C798.33 640 798.66 640 799 640C799 643.3 799 646.6 799 650C799.66 650 800.32 650 801 650C800.523 640.802 800.523 640.802 798 632Z" fill="#101010"/>
<path d="M571 461C610.6 461.495 610.6 461.495 651 462C651 462.33 651 462.66 651 463C625.26 463 599.52 463 573 463C573 468.94 573 474.88 573 481C581.91 481 590.82 481 600 481C600 481.33 600 481.66 600 482C590.43 482 580.86 482 571 482C571 475.07 571 468.14 571 461Z" fill="#020202"/>
<path d="M331 239C333.276 241.124 333.902 242.441 334.438 245.5C333.843 248.898 332.797 250.012 330 252C326.938 252.5 326.938 252.5 324 252C321.181 249.651 321.012 248.094 320.562 244.437C321 241 321 241 322.625 239C325.875 237.632 327.664 237.935 331 239Z" fill="#F2F2F2"/>
<path d="M399 660C402.084 662.637 403.559 665.746 405.355 669.348C405.662 669.96 405.968 670.573 406.284 671.204C406.928 672.494 407.569 673.786 408.208 675.079C409.188 677.063 410.178 679.04 411.17 681.018C416 690.721 416 690.721 416 693C407.75 693 399.5 693 391 693C389.433 690.03 387.865 687.06 386.25 684C385.764 683.081 385.279 682.162 384.778 681.215C383.939 679.622 383.104 678.027 382.271 676.43C381.442 674.845 380.6 673.266 379.744 671.695C378.754 669.835 377.868 667.92 377 666C377.33 665.01 377.66 664.02 378 663C379.856 666.664 381.708 670.33 383.554 673.999C384.183 675.247 384.814 676.494 385.446 677.741C386.353 679.531 387.255 681.324 388.156 683.117C388.701 684.196 389.246 685.275 389.807 686.386C391 689 391 689 391 691C398.26 690.67 405.52 690.34 413 690C411.989 688.002 410.979 686.004 409.938 683.945C408.964 682.013 407.991 680.08 407.019 678.147C406.341 676.802 405.662 675.457 404.981 674.114C404.005 672.184 403.033 670.253 402.062 668.32C401.476 667.158 400.889 665.995 400.285 664.797C399 662 399 662 399 660Z" fill="#0E0E0E"/>
<path d="M860 633C860.66 633 861.32 633 862 633C863.558 636.115 863.565 639.604 863 643C861.84 644.805 861.84 644.805 860 646C857.301 645.855 857.301 645.855 854.312 645.188C853.319 644.975 852.325 644.762 851.301 644.543C850.542 644.364 849.782 644.185 849 644C849 641.03 849 638.06 849 635C854.538 634.631 854.538 634.631 856.875 636.5C857.246 636.995 857.618 637.49 858 638C858.66 636.35 859.32 634.7 860 633Z" fill="#2F2F30"/>
<path d="M877 638C877.66 638 878.32 638 879 638C879.483 639.394 879.961 640.791 880.438 642.188C880.838 643.353 880.838 643.353 881.246 644.543C881.995 646.984 882.499 649.496 883 652C879.37 652 875.74 652 872 652C872 652.66 872 653.32 872 654C871.34 654.33 870.68 654.66 870 655C869.01 655.66 868.02 656.32 867 657C867.549 652.429 868.417 648.326 870 644C870.33 644.99 870.66 645.98 871 647C871.99 647 872.98 647 874 647C874.99 644.03 875.98 641.06 877 638ZM866 657C868.97 657.495 868.97 657.495 872 658C872 658.33 872 658.66 872 659C870.02 659 868.04 659 866 659C866 658.34 866 657.68 866 657Z" fill="#212121"/>
<path d="M792.5 629.312C793.294 629.391 794.088 629.47 794.906 629.551C797 630 797 630 799 632C801.73 637.763 801.181 643.775 801 650C800.34 650 799.68 650 799 650C799 646.7 799 643.4 799 640C798.34 640 797.68 640 797 640C796.794 639.36 796.588 638.721 796.375 638.062C795.113 635.655 795.113 635.655 791.938 635.312C790.483 635.158 790.483 635.158 789 635C788.67 634.67 788.34 634.34 788 634C786 633.959 784 633.957 782 634C785.668 630.209 787.197 628.736 792.5 629.312Z" fill="#222223"/>
<path d="M590 635C591.98 635 593.96 635 596 635C596 642.92 596 650.84 596 659C594.02 659 592.04 659 590 659C590 651.08 590 643.16 590 635Z" fill="#2E2E2F"/>
<path d="M687 630C687.99 630.33 688.98 630.66 690 631C690.33 633.64 690.66 636.28 691 639C691.33 639 691.66 639 692 639C692 645.6 692 652.2 692 659C690.35 659 688.7 659 687 659C687 649.43 687 639.86 687 630Z" fill="#383838"/>
<path d="M809 630C811.31 630 813.62 630 816 630C816.33 632.31 816.66 634.62 817 637C815 634 815 634 815 632C814.01 632 813.02 632 812 632C811.67 640.25 811.34 648.5 811 657C811.66 657 812.32 657 813 657C813 652.71 813 648.42 813 644C813.33 644 813.66 644 814 644C814 648.95 814 653.9 814 659C812.35 659 810.7 659 809 659C809 649.43 809 639.86 809 630Z" fill="#09090A"/>
<path d="M923 630C924.98 630 926.96 630 929 630C932.09 635.849 933.375 639.354 932 646C931.895 649.668 931.94 653.331 932 657C931.67 657 931.34 657 931 657C930.979 655.845 930.959 654.69 930.938 653.5C930.267 646.953 927.233 641.274 924.496 635.379C923 632 923 632 923 630Z" fill="#0F0F10"/>
<path d="M770 630C773.24 632.565 774.696 634.086 776 638C774.02 638.33 772.04 638.66 770 639C769.34 638.01 768.68 637.02 768 636C766.01 635.61 764.008 635.281 762 635C758.237 633.474 758.237 633.474 757 631C761.437 628.414 765.127 628.636 770 630Z" fill="#242424"/>
<path d="M913 631C913.66 631 914.32 631 915 631C915 639.58 915 648.16 915 657C913.35 656.67 911.7 656.34 910 656C907 651.138 907 651.138 907 648C908.98 648.33 910.96 648.66 913 649C913 643.06 913 637.12 913 631Z" fill="#252525"/>
<path d="M496 675C498.972 677.57 500.453 680.505 502.188 684C502.982 685.578 502.982 685.578 503.793 687.188C505 690 505 690 505 693C496.75 693 488.5 693 480 693C479.67 691.35 479.34 689.7 479 688C479.66 688.66 480.32 689.32 481 690C483.23 690.277 483.23 690.277 485.789 690.195C487.201 690.186 487.201 690.186 488.641 690.176C489.625 690.159 490.61 690.142 491.625 690.125C492.618 690.116 493.61 690.107 494.633 690.098C497.089 690.074 499.544 690.041 502 690C501.35 688.627 501.35 688.627 500.688 687.227C500.131 686.038 499.574 684.85 499 683.625C498.443 682.442 497.886 681.258 497.312 680.039C496 677 496 677 496 675Z" fill="#141414"/>
<path d="M895 630C895.33 630 895.66 630 896 630C896.33 634.95 896.66 639.9 897 645C897.66 643.35 898.32 641.7 899 640C899.33 640 899.66 640 900 640C900 646.27 900 652.54 900 659C898.35 659 896.7 659 895 659C895 649.43 895 639.86 895 630Z" fill="#3C3C3D"/>
<path d="M724.688 628.625C727.996 628.661 729.837 629.192 732.438 631.25C735.764 634.82 735.764 634.82 736 638C734.02 638 732.04 638 730 638C730 637.34 730 636.68 730 636C727.36 635.67 724.72 635.34 722 635C722 634.01 722 633.02 722 632C721.34 631.34 720.68 630.68 720 630C721 629 721 629 724.688 628.625Z" fill="#1C1C1C"/>
<path d="M938 630C939.98 630 941.96 630 944 630C942.36 635.233 940.61 640.152 938 645C937.34 645 936.68 645 936 645C934.798 638.772 935.068 635.629 938 630Z" fill="#181718"/>
<path d="M721.562 630.124C724.113 631.04 725.292 631.932 727 633.999C726.051 634.267 725.103 634.535 724.125 634.812C720.747 635.749 720.747 635.749 719 638.999C718.542 641.738 718.542 641.738 718.375 644.687C718.3 645.68 718.225 646.674 718.148 647.698C718.099 648.458 718.05 649.217 718 649.999C716 647.999 716 647.999 715.805 645.616C715.828 644.711 715.851 643.806 715.875 642.874C715.893 641.964 715.911 641.054 715.93 640.116C715.953 639.418 715.976 638.719 716 637.999C715.01 638.494 715.01 638.494 714 638.999C714.482 633.572 714.482 633.572 716.75 631.062C719 629.999 719 629.999 721.562 630.124Z" fill="#0F1010"/>
<path d="M471 532C473.497 535.066 475.028 538.144 476.625 541.75C480.574 549.795 486.552 555.703 495 559C495.66 559 496.32 559 497 559C497 559.66 497 560.32 497 561C498.65 561.33 500.3 561.66 502 562C502 562.33 502 562.66 502 563C493.85 562.819 487.605 558.245 481.691 552.922C476.417 547.379 471 539.926 471 532Z" fill="#090909"/>
<path d="M674 630C674.33 630 674.66 630 675 630C675 639.24 675 648.48 675 658C676.273 656.951 676.273 656.951 676.114 654.592C676.108 653.549 676.103 652.507 676.098 651.434C676.094 650.309 676.091 649.184 676.088 648.025C676.08 646.841 676.071 645.657 676.062 644.438C676.058 643.25 676.053 642.062 676.049 640.838C676.037 637.892 676.021 634.946 676 632C676.33 632 676.66 632 677 632C677 639.92 677 647.84 677 656C677.99 656 678.98 656 680 656C680 656.99 680 657.98 680 659C678.02 659 676.04 659 674 659C674 649.43 674 639.86 674 630Z" fill="#4B4B4C"/>
<path d="M225 601C230.345 601.324 233.524 604.202 237 608C240.84 613.33 243.604 618.577 245 625C238.714 627.429 238.714 627.429 235 626C237.31 625.01 239.62 624.02 242 623C241.59 622.18 241.18 621.36 240.758 620.516C236 611 236 611 234.918 608.672C233.68 606.417 232.319 606.06 230 605C228.311 603.695 226.64 602.366 225 601Z" fill="#141314"/>
<path d="M270 558C270.66 558.33 271.32 558.66 272 559C272.33 560.32 272.66 561.64 273 563C263.43 563 253.86 563 244 563C244.33 561.68 244.66 560.36 245 559C245 559.66 245 560.32 245 561C253.25 561 261.5 561 270 561C270 560.01 270 559.02 270 558Z" fill="#030403"/>
<path d="M171 559C171.99 559.66 172.98 560.32 174 561C174 561.66 174 562.32 174 563C164.1 563 154.2 563 144 563C144 562.34 144 561.68 144 561C152.91 561 161.82 561 171 561C171 560.34 171 559.68 171 559Z" fill="#080808"/>
<path d="M315 174C315.99 174.33 316.98 174.66 318 175C318 184.24 318 193.48 318 203C315 200 315 200 314.659 197.273C314.675 196.199 314.691 195.126 314.707 194.02C314.717 192.856 314.726 191.693 314.736 190.494C314.774 188.672 314.774 188.672 314.812 186.812C314.826 185.586 314.84 184.359 314.854 183.096C314.889 180.063 314.938 177.032 315 174Z" fill="#282829"/>
<path d="M145 461C153.58 461 162.16 461 171 461C169 465 169 465 167 466C167 465.34 167 464.68 167 464C163.375 463.971 159.75 463.953 156.125 463.938C155.092 463.929 154.06 463.921 152.996 463.912C152.01 463.909 151.024 463.906 150.008 463.902C149.097 463.897 148.185 463.892 147.247 463.886C144.963 463.851 144.963 463.851 143 465C143.66 463.68 144.32 462.36 145 461Z" fill="#161616"/>
<path d="M541 659C541.33 659 541.66 659 542 659C542.33 670.22 542.66 681.44 543 693C535.74 693 528.48 693 521 693C521 692.67 521 692.34 521 692C527.27 691.67 533.54 691.34 540 691C540.33 680.44 540.66 669.88 541 659Z" fill="#141414"/>
<path d="M646 640C647.831 643.136 648.296 645.505 648.312 649.125C648.329 649.994 648.346 650.863 648.363 651.758C648.243 652.498 648.124 653.238 648 654C645 656 645 656 642 656C642 653.03 642 650.06 642 647C642.99 647.33 643.98 647.66 645 648C645.33 645.36 645.66 642.72 646 640Z" fill="#232323"/>
<path d="M753 636C754.32 636.66 755.64 637.32 757 638C757 641.96 757 645.92 757 650C756.01 649.67 755.02 649.34 754 649C753.67 649.66 753.34 650.32 753 651C751.763 648.526 751.867 646.821 751.875 644.062C751.872 643.187 751.87 642.312 751.867 641.41C752 639 752 639 753 636Z" fill="#272727"/>
<path d="M381 370C383.632 374.738 384.151 379.254 384.188 384.625C384.202 385.566 384.216 386.507 384.23 387.477C384 390 384 390 382 393C380.702 390.405 380.867 388.458 380.875 385.562C380.872 384.594 380.87 383.626 380.867 382.629C381 380 381 380 382 377C381.34 377 380.68 377 380 377C380.33 374.69 380.66 372.38 381 370Z" fill="#242525"/>
<path d="M611 631C611.66 631.33 612.32 631.66 613 632C612.43 637.35 611.793 642.678 611 648C610.67 648 610.34 648 610 648C609.67 645.36 609.34 642.72 609 640C608.01 640.495 608.01 640.495 607 641C607.615 634.477 607.615 634.477 609.562 632.062C610.274 631.537 610.274 631.537 611 631Z" fill="#101111"/>
<path d="M850 635C852.31 635.33 854.62 635.66 857 636C857 637.98 857 639.96 857 642C854.69 642 852.38 642 850 642C850 639.69 850 637.38 850 635Z" fill="#F4F3F4"/>
<path d="M794 633C794 633.33 794 633.66 794 634C792.577 634.371 792.577 634.371 791.125 634.75C787.977 635.661 787.977 635.661 786.844 637.781C785.939 640.161 785.598 642.217 785.375 644.75C785.3 645.549 785.225 646.348 785.148 647.171C785.099 647.775 785.05 648.378 785 649C784.67 649 784.34 649 784 649C783.67 645.7 783.34 642.4 783 639C782.34 639 781.68 639 781 639C781.33 637.35 781.66 635.7 782 634C786.064 633.226 789.864 632.901 794 633Z" fill="#0D0D0D"/>
<path d="M621 628.999C622 630.999 622 630.999 621.5 632.999C619.249 636 616.554 636.21 613 636.999C612.67 634.689 612.34 632.379 612 629.999C615.196 628.934 617.657 628.925 621 628.999Z" fill="#252425"/>
<path d="M875 630C876.98 630 878.96 630 881 630C882.528 633.594 883.143 636.24 882.562 640.062C882.064 643.552 882.063 645.668 883 649C880.429 645.986 879.478 643.64 878.812 639.75C878.654 638.858 878.495 637.966 878.332 637.047C878.222 636.371 878.113 635.696 878 635C878.66 635.33 879.32 635.66 880 636C880 634.35 880 632.7 880 631C878.35 631.33 876.7 631.66 875 632C875 631.34 875 630.68 875 630Z" fill="#0F0E0F"/>
<path d="M896 630C897.98 630 899.96 630 902 630C902.33 631.65 902.66 633.3 903 635C901.02 633.68 899.04 632.36 897 631C897 639.58 897 648.16 897 657C896.67 657 896.34 657 896 657C896 648.09 896 639.18 896 630Z" fill="#030303"/>
<path d="M817 639C817.66 639 818.32 639 819 639C822.674 647.365 822.674 647.365 821 652C819.938 654.312 819.938 654.312 819 656C817.338 652.48 816.807 650.7 818 647C818 643.887 817.826 641.892 817 639Z" fill="#0D0D0D"/>
<path d="M813 641C814.98 641.66 816.96 642.32 819 643C819.33 644.65 819.66 646.3 820 648C818.68 648.33 817.36 648.66 816 649C815.67 652.3 815.34 655.6 815 659C814.67 659 814.34 659 814 659C813.67 653.06 813.34 647.12 813 641Z" fill="#373737"/>
<path d="M196 596C202.27 596 208.54 596 215 596C215 596.33 215 596.66 215 597C208.93 599.158 203.406 599.209 197 599C196.67 598.01 196.34 597.02 196 596Z" fill="#212122"/>
<path d="M653 633C655.125 636.188 655.502 638.265 656 642C656.66 641.67 657.32 641.34 658 641C658.33 643.31 658.66 645.62 659 648C658.01 648.66 657.02 649.32 656 650C655.691 649.216 655.381 648.433 655.063 647.625C654.071 645.077 654.071 645.077 653 643C652.93 641.293 652.916 639.583 652.938 637.875C652.947 636.965 652.956 636.055 652.965 635.117C652.976 634.419 652.988 633.72 653 633Z" fill="#222122"/>
<path d="M877 638C877.66 638 878.32 638 879 638C879.66 641.3 880.32 644.6 881 648C879.02 648 877.04 648 875 648C875.66 644.7 876.32 641.4 877 638Z" fill="#EEEEEE"/>
<path d="M880 631C880.33 632.98 880.66 634.96 881 637C880.34 637 879.68 637 879 637C878.505 637.495 878.01 637.99 877.5 638.5C877.005 638.995 876.51 639.49 876 640C875.34 640 874.68 640 874 640C874.186 639.051 874.371 638.103 874.562 637.125C875.287 634.101 875.287 634.101 874 632C876 631 876 631 880 631Z" fill="#222122"/>
<path d="M336 194C336.33 194 336.66 194 337 194C337.902 198.059 338.15 202.044 338.25 206.188C338.276 207.212 338.302 208.237 338.328 209.293C338 212 338 212 336.484 213.863C335.995 214.238 335.505 214.614 335 215C334.973 212.25 334.953 209.5 334.938 206.75C334.929 205.973 334.921 205.195 334.912 204.395C334.909 203.64 334.906 202.886 334.902 202.109C334.897 201.418 334.892 200.727 334.886 200.015C335.006 197.9 335.424 196.034 336 194Z" fill="#232223"/>
<path d="M647 339C655.402 341.154 661.916 346.112 667 353C663.52 351.42 660.623 349.342 657.562 347.062C654.806 345.011 652.107 343.064 649.152 341.309C648.442 340.877 647.732 340.445 647 340C647 339.67 647 339.34 647 339Z" fill="#0F0F0F"/>
<path d="M783 647C783.99 647.33 784.98 647.66 786 648C786.33 650.64 786.66 653.28 787 656C785.02 655.34 783.04 654.68 781 654C780.67 652.35 780.34 650.7 780 649C780.99 648.34 781.98 647.68 783 647Z" fill="#1F1E1F"/>
<path d="M528 539C528.99 539.33 529.98 539.66 531 540C525.174 544.929 520.274 545.519 512.758 545.371C510 545 510 545 508 543C508.785 543.035 509.57 543.07 510.379 543.105C516.766 543.27 521.379 543.123 527 540C527.33 539.67 527.66 539.34 528 539Z" fill="#0D0D0D"/>
<path d="M713 637C714.32 637.33 715.64 637.66 717 638C717 641.96 717 645.92 717 650C716.01 650.495 716.01 650.495 715 651C714.663 649.23 714.331 647.459 714 645.688C713.814 644.701 713.629 643.715 713.438 642.699C713 640 713 640 713 637Z" fill="#212121"/>
<path d="M677 373C679.326 376.634 679.163 379.771 679 384C678.67 384 678.34 384 678 384C677.67 386.31 677.34 388.62 677 391C676.67 391 676.34 391 676 391C675.973 388.562 675.953 386.125 675.937 383.688C675.929 382.997 675.921 382.307 675.912 381.596C675.897 378.452 675.998 376.006 677 373Z" fill="#262626"/>
<path d="M872 652C875.63 652 879.26 652 883 652C883 652.33 883 652.66 883 653C879.7 653 876.4 653 873 653C872.67 654.65 872.34 656.3 872 658C870.35 658 868.7 658 867 658C867.66 656.35 868.32 654.7 869 653C869.99 653.33 870.98 653.66 872 654C872 653.34 872 652.68 872 652Z" fill="#0D0D0D"/>
<path d="M727.09 628.769C729 629 729 629 731 631C727.55 633.3 726.054 633.431 722 633C721.34 632.01 720.68 631.02 720 630C721.895 628.105 724.571 628.819 727.09 628.769Z" fill="#2E2D2E"/>
<path d="M469 496C469.99 496.33 470.98 496.66 472 497C471.67 500.3 471.34 503.6 471 507C470.01 507 469.02 507 468 507C468.33 503.37 468.66 499.74 469 496Z" fill="#252525"/>
<path d="M303 231C304.581 234.163 302.952 236.695 302 240C302.021 240.928 302.041 241.856 302.062 242.812C302.042 243.534 302.021 244.256 302 245C301.01 245.66 300.02 246.32 299 247C298.457 240.345 299.227 236.542 303 231Z" fill="#131313"/>
<path d="M861 634C861.66 634.33 862.32 634.66 863 635C863 637.64 863 640.28 863 643C861.35 643.66 859.7 644.32 858 645C857.67 644.34 857.34 643.68 857 643C857.33 642.34 857.66 641.68 858 641C858.66 641 859.32 641 860 641C860.33 638.69 860.66 636.38 861 634Z" fill="#151515"/>
<path d="M628 639C628.492 645.4 628.492 645.4 626 648.438C625.01 649.211 625.01 649.211 624 650C623.919 648.543 623.861 647.084 623.812 645.625C623.778 644.813 623.743 644.001 623.707 643.164C623.804 642.45 623.9 641.736 624 641C627 639 627 639 628 639Z" fill="#2B2A2C"/>
<path d="M770 650C771.98 650 773.96 650 776 650C774.814 653.375 773.724 655.647 771 658C770.01 657.67 769.02 657.34 768 657C769.65 655.68 771.3 654.36 773 653C771.68 653 770.36 653 769 653C769.33 652.01 769.66 651.02 770 650Z" fill="#131313"/>
<path d="M906 641C908.523 642.974 908.993 643.967 909.688 647.188C909.791 648.116 909.894 649.044 910 650C909.67 649.34 909.34 648.68 909 648C908.01 648 907.02 648 906 648C905.34 646.35 904.68 644.7 904 643C904.66 642.34 905.32 641.68 906 641Z" fill="#121212"/>
<path d="M667 635C668.467 638.815 667.433 641.29 666 645C663.238 642.238 663.421 639.793 663 636C663.33 636.66 663.66 637.32 664 638C664.99 638 665.98 638 667 638C667 637.01 667 636.02 667 635Z" fill="#0F0E0F"/>
<path d="M321 528C324.536 531.173 326.586 533.167 327 538C326.01 538.495 326.01 538.495 325 539C324.326 537.733 323.661 536.461 323 535.188C322.629 534.48 322.257 533.772 321.875 533.043C321 531 321 531 321 528Z" fill="#222222"/>
<path d="M346 401.001C345.34 401.661 344.68 402.321 344 403.001C343.01 403.001 342.02 403.001 341 403.001C341 403.661 341 404.321 341 405.001C337.675 406.109 335.378 405.845 332 405.001C334.633 403.575 337.345 402.415 340.125 401.313C340.808 401.041 341.491 400.769 342.195 400.489C344 400.001 344 400.001 346 401.001Z" fill="#111111"/>
<path d="M720 653C723.3 653 726.6 653 730 653C729.34 654.32 728.68 655.64 728 657C728 657.66 728 658.32 728 659C726.35 659 724.7 659 723 659C723.99 658.67 724.98 658.34 726 658C726 657.34 726 656.68 726 656C724.02 655.34 722.04 654.68 720 654C720 653.67 720 653.34 720 653Z" fill="#070807"/>
<path d="M882 636C882.66 636.33 883.32 636.66 884 637C884.594 639.649 884.742 642.292 885 645C883.68 644.67 882.36 644.34 881 644C881.33 641.36 881.66 638.72 882 636Z" fill="#181818"/>
<path d="M606 639C607.32 639.33 608.64 639.66 610 640C610.195 646.055 610.195 646.055 610 648C609.34 648.66 608.68 649.32 608 650C607.856 648.928 607.711 647.855 607.562 646.75C607.163 644.083 606.724 641.586 606 639Z" fill="#252425"/>
<path d="M649 635C649.99 635.33 650.98 635.66 652 636C652.33 637.98 652.66 639.96 653 642C652.01 641.34 651.02 640.68 650 640C649.34 640.99 648.68 641.98 648 643C647.67 640.69 647.34 638.38 647 636C647.66 635.67 648.32 635.34 649 635Z" fill="#323132"/>
<path d="M638 630C638.66 630 639.32 630 640 630C639.886 631.48 639.759 632.959 639.625 634.438C639.521 635.673 639.521 635.673 639.414 636.934C639.277 637.616 639.141 638.297 639 639C638.01 639.495 638.01 639.495 637 640C636.67 637.36 636.34 634.72 636 632C636.66 632 637.32 632 638 632C638 631.34 638 630.68 638 630Z" fill="#232223"/>
<path d="M923 630C924.98 630 926.96 630 929 630C929.33 631.98 929.66 633.96 930 636C929.34 634.68 928.68 633.36 928 632C927.01 632.495 927.01 632.495 926 633C925.67 633.99 925.34 634.98 925 636C924.34 634.02 923.68 632.04 923 630Z" fill="#0C0B0C"/>
<path d="M270 558C270.66 558.33 271.32 558.66 272 559C272.33 560.32 272.66 561.64 273 563C267.39 562.67 261.78 562.34 256 562C256 561.67 256 561.34 256 561C260.62 561 265.24 561 270 561C270 560.01 270 559.02 270 558Z" fill="#0F0F0F"/>
<path d="M717 654C723.75 654.875 723.75 654.875 726 656C726 656.66 726 657.32 726 658C724.02 658.33 722.04 658.66 720 659C720 658.34 720 657.68 720 657C718.542 655.375 718.542 655.375 717 654Z" fill="#202021"/>
<path d="M938 630C939.98 630 941.96 630 944 630C943.398 632.02 942.727 634.021 942 636C941.01 636.495 941.01 636.495 940 637C940.33 635.35 940.66 633.7 941 632C939.02 632.99 939.02 632.99 937 634C937.33 632.68 937.66 631.36 938 630Z" fill="#0E0E0F"/>
<path d="M164 656C164.33 656.66 164.66 657.32 165 658C165.66 658 166.32 658 167 658C167 661.3 167 664.6 167 668C164.976 664.965 164.679 663.806 164.375 660.312C164.3 659.504 164.225 658.696 164.148 657.863C164.099 657.248 164.05 656.634 164 656Z" fill="#101010"/>
<path d="M646 653C646.33 653 646.66 653 647 653C647.043 654.666 647.041 656.334 647 658C646 659 646 659 643.438 659.062C642.231 659.032 642.231 659.032 641 659C640.67 657.35 640.34 655.7 640 654C640.33 654.99 640.66 655.98 641 657C642.32 657 643.64 657 645 657C645.33 655.68 645.66 654.36 646 653Z" fill="#101010"/>
<path d="M769 631C770.32 631.33 771.64 631.66 773 632C773.33 633.32 773.66 634.64 774 636C772.68 636.33 771.36 636.66 770 637C769.67 635.02 769.34 633.04 769 631Z" fill="#151515"/>
<path d="M907 648C909.475 648.495 909.475 648.495 912 649C912.33 649.99 912.66 650.98 913 652C911.02 652.99 911.02 652.99 909 654C908.34 652.02 907.68 650.04 907 648Z" fill="#2C2C2D"/>
<path d="M850 644.001C855.538 643.632 855.538 643.632 857.875 645.501C858.246 645.996 858.618 646.491 859 647.001C857.35 647.331 855.7 647.661 854 648.001C854 647.341 854 646.681 854 646.001C852.68 646.001 851.36 646.001 850 646.001C850 645.341 850 644.681 850 644.001Z" fill="#222222"/>
<path d="M662 638C664.686 640.686 665.06 643.376 666 647C664.35 646.01 662.7 645.02 661 644C661.33 642.02 661.66 640.04 662 638Z" fill="#262627"/>
<path d="M695 637C695.99 637 696.98 637 698 637C699 642.75 699 642.75 699 645C698.01 644.67 697.02 644.34 696 644C695.67 641.69 695.34 639.38 695 637Z" fill="#242324"/>
<path d="M925 632C925.99 632 926.98 632 928 632C928.66 633.65 929.32 635.3 930 637C928.02 637.99 928.02 637.99 926 639C925.67 636.69 925.34 634.38 925 632Z" fill="#1F1F1F"/>
<path d="M490 558C492.31 558.33 494.62 558.66 497 559C497 559.66 497 560.32 497 561C498.65 561.33 500.3 561.66 502 562C502 562.33 502 562.66 502 563C497.251 562.534 493.892 561.831 490 559C490 558.67 490 558.34 490 558Z" fill="#111111"/>
<path d="M843 515C843.33 515 843.66 515 844 515C844 518.3 844 521.6 844 525C843.01 524.67 842.02 524.34 841 524C841 521.69 841 519.38 841 517C841.66 517 842.32 517 843 517C843 516.34 843 515.68 843 515Z" fill="#262727"/>
<path d="M912 649C912.66 649 913.32 649 914 649C914 651.31 914 653.62 914 656C912.68 656 911.36 656 910 656C910.33 654.68 910.66 653.36 911 652C911.66 652 912.32 652 913 652C912.67 651.01 912.34 650.02 912 649Z" fill="#1D1C1C"/>
<path d="M758 649C758.66 649.99 759.32 650.98 760 652C758.515 654.475 758.515 654.475 757 657C756.34 656.67 755.68 656.34 755 656C755 654.35 755 652.7 755 651C755.66 651 756.32 651 757 651C757.33 650.34 757.66 649.68 758 649Z" fill="#262626"/>
<path d="M612 630C612.99 630.33 613.98 630.66 615 631C615 631.99 615 632.98 615 634C616.65 634 618.3 634 620 634C620 634.33 620 634.66 620 635C617.69 635.66 615.38 636.32 613 637C612.67 634.69 612.34 632.38 612 630Z" fill="#393939"/>
<path d="M882 461C880 463 880 463 877 463.25C874 463 874 463 872 461C875.576 459.762 878.337 460.251 882 461Z" fill="#242424"/>
<path d="M815 646C816.991 648.986 817.941 651.597 819 655C817.68 654.67 816.36 654.34 815 654C815 651.36 815 648.72 815 646Z" fill="#F0F0F0"/>
<path d="M661 644C662.98 644.99 662.98 644.99 665 646C664.67 647.65 664.34 649.3 664 651C663.01 650.67 662.02 650.34 661 650C661 648.02 661 646.04 661 644Z" fill="#0B0B0C"/>
<path d="M640 635C641.461 637.647 642 638.894 642 642C641.01 642 640.02 642 639 642C638.67 642.66 638.34 643.32 638 644C637.34 643.67 636.68 643.34 636 643C636 642.34 636 641.68 636 641C636.99 640.67 637.98 640.34 639 640C639.33 638.35 639.66 636.7 640 635Z" fill="#262626"/>
<path d="M796 655C796 656.32 796 657.64 796 659C793.36 658.34 790.72 657.68 788 657C788 656.67 788 656.34 788 656C790.763 655.403 793.16 655 796 655Z" fill="#202020"/>
<path d="M660 647C660.99 647.33 661.98 647.66 663 648C662.67 650.31 662.34 652.62 662 655C660.438 653.25 660.438 653.25 659 651C659.312 648.75 659.312 648.75 660 647Z" fill="#2D2E2E"/>
<path d="M872 638C872.33 638.99 872.66 639.98 873 641C873.66 641 874.32 641 875 641C874.67 642.65 874.34 644.3 874 646C873.34 646 872.68 646 872 646C871.2 642.713 870.903 641.29 872 638Z" fill="#1F1F20"/>
</svg>
